{
    "asset" : {
        "generator" : "Khronos glTF Blender I/O v1.4.40",
        "version" : "2.0"
    },
    "extensionsUsed" : [
        "KHR_materials_transmission"
    ],
    "scene" : 0,
    "scenes" : [
        {
            "name" : "Scene",
            "nodes" : [
                0,
                2,
                5,
                7,
                8,
                9
            ]
        }
    ],
    "nodes" : [
        {
            "mesh" : 0,
            "name" : "lamp_body",
            "rotation" : [
                0,
                0.943149983882904,
                0,
                -0.3323674499988556
            ],
            "scale" : [
                0.4949355721473694,
                0.4949355721473694,
                0.4949355721473694
            ],
            "translation" : [
                0.5160975456237793,
                2.4858176708221436,
                -4.375852584838867
            ]
        },
        {
            "mesh" : 1,
            "name" : "lamp_head_holder",
            "scale" : [
                1.5531593561172485,
                1.5531593561172485,
                1.5531593561172485
            ],
            "translation" : [
                0.003239929676055908,
                0.30834531784057617,
                -0.0020537376403808594
            ]
        },
        {
            "children" : [
                1
            ],
            "mesh" : 2,
            "name" : "lamp_head",
            "scale" : [
                0.6438488364219666,
                0.6438488364219666,
                0.6438488364219666
            ],
            "translation" : [
                0.5143314003944397,
                4.358952522277832,
                -4.377561569213867
            ]
        },
        {
            "mesh" : 3,
            "name" : "bulb_holder",
            "scale" : [
                0.8651740550994873,
                1.6080549955368042,
                0.8651740550994873
            ],
            "translation" : [
                0,
                -2.93426513671875,
                0.0311279296875
            ]
        },
        {
            "mesh" : 4,
            "name" : "filament",
            "scale" : [
                0.25422754883766174,
                0.4358288049697876,
                0.25422754883766174
            ],
            "translation" : [
                -0.00017642974853515625,
                1.8855514526367188,
                -0.001842498779296875
            ]
        },
        {
            "children" : [
                3,
                4
            ],
            "mesh" : 5,
            "name" : "bulb",
            "scale" : [
                0.10484464466571808,
                0.05640905722975731,
                0.10484464466571808
            ],
            "translation" : [
                0.5158413648605347,
                4.043356418609619,
                -4.376817226409912
            ]
        },
        {
            "name" : "Camera.001",
            "rotation" : [
                0.1489071398973465,
                -0.693545937538147,
                0.688721239566803,
                0.14994597434997559
            ],
            "scale" : [
                2.132956027984619,
                2.132956027984619,
                2.13295578956604
            ],
            "translation" : [
                -4.315709114074707,
                0.5841939449310303,
                -9.433709144592285
            ]
        },
        {
            "children" : [
                6
            ],
            "name" : "focus",
            "scale" : [
                1.0163630247116089,
                1.0163630247116089,
                1.0163630247116089
            ],
            "translation" : [
                0.5045599937438965,
                2.4574646949768066,
                -4.518375873565674
            ]
        },
        {
            "name" : "Area",
            "rotation" : [
                0,
                0,
                0.8659623265266418,
                0.5001094341278076
            ],
            "scale" : [
                -22.348556518554688,
                -22.348556518554688,
                -22.348556518554688
            ],
            "translation" : [
                14.581703186035156,
                11.379962921142578,
                -3.972327709197998
            ]
        },
        {
            "mesh" : 6,
            "name" : "Plane",
            "scale" : [
                28.522703170776367,
                28.522703170776367,
                28.522703170776367
            ],
            "translation" : [
                0.5045599937438965,
                1.0181629657745361,
                -3.972327709197998
            ]
        }
    ],
    "animations" : [
        {
            "channels" : [
                {
                    "sampler" : 0,
                    "target" : {
                        "node" : 7,
                        "path" : "rotation"
                    }
                }
            ],
            "name" : "focusAction",
            "samplers" : [
                {
                    "input" : 32,
                    "interpolation" : "LINEAR",
                    "output" : 33
                }
            ]
        }
    ],
    "materials" : [
        {
            "doubleSided" : true,
            "name" : "lamp_stand",
            "pbrMetallicRoughness" : {
                "metallicFactor" : 0,
                "roughnessFactor" : 0.2764990031719208
            }
        },
        {
            "doubleSided" : true,
            "name" : "lamp_metal_stand",
            "pbrMetallicRoughness" : {
                "baseColorFactor" : [
                    0.33604905009269714,
                    0.33604905009269714,
                    0.33604905009269714,
                    1
                ],
                "roughnessFactor" : 0.09480977058410645
            }
        },
        {
            "doubleSided" : true,
            "extensions" : {
                "KHR_materials_transmission" : {
                    "transmissionFactor" : 0.48410704731941223
                }
            },
            "name" : "lamp top",
            "pbrMetallicRoughness" : {
                "baseColorFactor" : [
                    0.799102783203125,
                    0.5457245707511902,
                    0.16826944053173065,
                    1
                ],
                "metallicFactor" : 0,
                "roughnessFactor" : 0.652482271194458
            }
        },
        {
            "doubleSided" : true,
            "name" : "bulb_metal",
            "pbrMetallicRoughness" : {
                "baseColorFactor" : [
                    0.33604905009269714,
                    0.33604905009269714,
                    0.33604905009269714,
                    1
                ],
                "roughnessFactor" : 0.6409090757369995
            }
        },
        {
            "doubleSided" : true,
            "name" : "filament",
            "pbrMetallicRoughness" : {}
        },
        {
            "doubleSided" : true,
            "extensions" : {
                "KHR_materials_transmission" : {
                    "transmissionFactor" : 1
                }
            },
            "name" : "bulb_glass",
            "pbrMetallicRoughness" : {
                "baseColorFactor" : [
                    0.800000011920929,
                    0.800000011920929,
                    0.800000011920929,
                    1
                ],
                "metallicFactor" : 0,
                "roughnessFactor" : 0
            }
        },
        {
            "doubleSided" : true,
            "name" : "plane",
            "pbrMetallicRoughness" : {
                "baseColorFactor" : [
                    0.800000011920929,
                    0.800000011920929,
                    0.800000011920929,
                    1
                ],
                "metallicFactor" : 0,
                "roughnessFactor" : 0.20454546809196472
            }
        }
    ],
    "meshes" : [
        {
            "name" : "Circle",
            "primitives" : [
                {
                    "attributes" : {
                        "POSITION" : 0,
                        "NORMAL" : 1,
                        "TEXCOORD_0" : 2
                    },
                    "indices" : 3,
                    "material" : 0
                },
                {
                    "attributes" : {
                        "POSITION" : 4,
                        "NORMAL" : 5,
                        "TEXCOORD_0" : 6
                    },
                    "indices" : 7,
                    "material" : 1
                }
            ]
        },
        {
            "name" : "Cylinder.003",
            "primitives" : [
                {
                    "attributes" : {
                        "POSITION" : 8,
                        "NORMAL" : 9,
                        "TEXCOORD_0" : 10
                    },
                    "indices" : 11,
                    "material" : 2
                }
            ]
        },
        {
            "name" : "Cone",
            "primitives" : [
                {
                    "attributes" : {
                        "POSITION" : 12,
                        "NORMAL" : 13,
                        "TEXCOORD_0" : 14
                    },
                    "indices" : 15,
                    "material" : 2
                }
            ]
        },
        {
            "name" : "Cylinder",
            "primitives" : [
                {
                    "attributes" : {
                        "POSITION" : 16,
                        "NORMAL" : 17,
                        "TEXCOORD_0" : 18
                    },
                    "indices" : 19,
                    "material" : 3
                }
            ]
        },
        {
            "name" : "Cube",
            "primitives" : [
                {
                    "attributes" : {
                        "POSITION" : 20,
                        "NORMAL" : 21,
                        "TEXCOORD_0" : 22
                    },
                    "indices" : 23,
                    "material" : 4
                }
            ]
        },
        {
            "name" : "Cylinder.001",
            "primitives" : [
                {
                    "attributes" : {
                        "POSITION" : 24,
                        "NORMAL" : 25,
                        "TEXCOORD_0" : 26
                    },
                    "indices" : 27,
                    "material" : 5
                }
            ]
        },
        {
            "name" : "Plane",
            "primitives" : [
                {
                    "attributes" : {
                        "POSITION" : 28,
                        "NORMAL" : 29,
                        "TEXCOORD_0" : 30
                    },
                    "indices" : 31,
                    "material" : 6
                }
            ]
        }
    ],
    "accessors" : [
        {
            "bufferView" : 0,
            "componentType" : 5126,
            "count" : 1240,
            "max" : [
                0.8467229008674622,
                2.339931011199951,
                0.8468509316444397
            ],
            "min" : [
                -0.8467226028442383,
                -2.949127435684204,
                -0.846594512462616
            ],
            "type" : "VEC3"
        },
        {
            "bufferView" : 1,
            "componentType" : 5126,
            "count" : 1240,
            "type" : "VEC3"
        },
        {
            "bufferView" : 2,
            "componentType" : 5126,
            "count" : 1240,
            "type" : "VEC2"
        },
        {
            "bufferView" : 3,
            "componentType" : 5123,
            "count" : 6054,
            "type" : "SCALAR"
        },
        {
            "bufferView" : 4,
            "componentType" : 5126,
            "count" : 100,
            "max" : [
                0.27520400285720825,
                2.7809255123138428,
                0.2736138701438904
            ],
            "min" : [
                -0.27520373463630676,
                2.33992862701416,
                -0.27679377794265747
            ],
            "type" : "VEC3"
        },
        {
            "bufferView" : 5,
            "componentType" : 5126,
            "count" : 100,
            "type" : "VEC3"
        },
        {
            "bufferView" : 6,
            "componentType" : 5126,
            "count" : 100,
            "type" : "VEC2"
        },
        {
            "bufferView" : 7,
            "componentType" : 5123,
            "count" : 480,
            "type" : "SCALAR"
        },
        {
            "bufferView" : 8,
            "componentType" : 5126,
            "count" : 104,
            "max" : [
                0.1349954456090927,
                0.23168118298053741,
                0.13499556481838226
            ],
            "min" : [
                -0.13499541580677032,
                -0.005144150462001562,
                -0.13499540090560913
            ],
            "type" : "VEC3"
        },
        {
            "bufferView" : 9,
            "componentType" : 5126,
            "count" : 104,
            "type" : "VEC3"
        },
        {
            "bufferView" : 10,
            "componentType" : 5126,
            "count" : 104,
            "type" : "VEC2"
        },
        {
            "bufferView" : 11,
            "componentType" : 5123,
            "count" : 576,
            "type" : "SCALAR"
        },
        {
            "bufferView" : 12,
            "componentType" : 5126,
            "count" : 324,
            "max" : [
                1.5130650997161865,
                0.6695833206176758,
                1.5192216634750366
            ],
            "min" : [
                -1.5087330341339111,
                -0.9997907876968384,
                -1.4903316497802734
            ],
            "type" : "VEC3"
        },
        {
            "bufferView" : 13,
            "componentType" : 5126,
            "count" : 324,
            "type" : "VEC3"
        },
        {
            "bufferView" : 14,
            "componentType" : 5126,
            "count" : 324,
            "type" : "VEC2"
        },
        {
            "bufferView" : 15,
            "componentType" : 5123,
            "count" : 1386,
            "type" : "SCALAR"
        },
        {
            "bufferView" : 16,
            "componentType" : 5126,
            "count" : 374,
            "max" : [
                1.2669756412506104,
                1.6756755113601685,
                1.2171499729156494
            ],
            "min" : [
                -1.2669756412506104,
                -0.761055588722229,
                -1.302919864654541
            ],
            "type" : "VEC3"
        },
        {
            "bufferView" : 17,
            "componentType" : 5126,
            "count" : 374,
            "type" : "VEC3"
        },
        {
            "bufferView" : 18,
            "componentType" : 5126,
            "count" : 374,
            "type" : "VEC2"
        },
        {
            "bufferView" : 19,
            "componentType" : 5123,
            "count" : 1884,
            "type" : "SCALAR"
        },
        {
            "bufferView" : 20,
            "componentType" : 5126,
            "count" : 58,
            "max" : [
                1.2298247814178467,
                3.3923778533935547,
                1.0335636138916016
            ],
            "min" : [
                -1.2287291288375854,
                -6.5867767333984375,
                -1.0335636138916016
            ],
            "type" : "VEC3"
        },
        {
            "bufferView" : 21,
            "componentType" : 5126,
            "count" : 58,
            "type" : "VEC3"
        },
        {
            "bufferView" : 22,
            "componentType" : 5126,
            "count" : 58,
            "type" : "VEC2"
        },
        {
            "bufferView" : 23,
            "componentType" : 5123,
            "count" : 306,
            "type" : "SCALAR"
        },
        {
            "bufferView" : 24,
            "componentType" : 5126,
            "count" : 238,
            "max" : [
                2.2957701683044434,
                9.8408842086792,
                2.2579712867736816
            ],
            "min" : [
                -2.295769691467285,
                -0.8090898990631104,
                -2.308415412902832
            ],
            "type" : "VEC3"
        },
        {
            "bufferView" : 25,
            "componentType" : 5126,
            "count" : 238,
            "type" : "VEC3"
        },
        {
            "bufferView" : 26,
            "componentType" : 5126,
            "count" : 238,
            "type" : "VEC2"
        },
        {
            "bufferView" : 27,
            "componentType" : 5123,
            "count" : 1164,
            "type" : "SCALAR"
        },
        {
            "bufferView" : 28,
            "componentType" : 5126,
            "count" : 24,
            "max" : [
                1,
                0.9803621172904968,
                1
            ],
            "min" : [
                -1,
                0,
                -1
            ],
            "type" : "VEC3"
        },
        {
            "bufferView" : 29,
            "componentType" : 5126,
            "count" : 24,
            "type" : "VEC3"
        },
        {
            "bufferView" : 30,
            "componentType" : 5126,
            "count" : 24,
            "type" : "VEC2"
        },
        {
            "bufferView" : 31,
            "componentType" : 5123,
            "count" : 126,
            "type" : "SCALAR"
        },
        {
            "bufferView" : 32,
            "componentType" : 5126,
            "count" : 25,
            "max" : [
                1
            ],
            "min" : [
                0
            ],
            "type" : "SCALAR"
        },
        {
            "bufferView" : 33,
            "componentType" : 5126,
            "count" : 25,
            "type" : "VEC4"
        }
    ],
    "bufferViews" : [
        {
            "buffer" : 0,
            "byteLength" : 14880,
            "byteOffset" : 0
        },
        {
            "buffer" : 0,
            "byteLength" : 14880,
            "byteOffset" : 14880
        },
        {
            "buffer" : 0,
            "byteLength" : 9920,
            "byteOffset" : 29760
        },
        {
            "buffer" : 0,
            "byteLength" : 12108,
            "byteOffset" : 39680
        },
        {
            "buffer" : 0,
            "byteLength" : 1200,
            "byteOffset" : 51788
        },
        {
            "buffer" : 0,
            "byteLength" : 1200,
            "byteOffset" : 52988
        },
        {
            "buffer" : 0,
            "byteLength" : 800,
            "byteOffset" : 54188
        },
        {
            "buffer" : 0,
            "byteLength" : 960,
            "byteOffset" : 54988
        },
        {
            "buffer" : 0,
            "byteLength" : 1248,
            "byteOffset" : 55948
        },
        {
            "buffer" : 0,
            "byteLength" : 1248,
            "byteOffset" : 57196
        },
        {
            "buffer" : 0,
            "byteLength" : 832,
            "byteOffset" : 58444
        },
        {
            "buffer" : 0,
            "byteLength" : 1152,
            "byteOffset" : 59276
        },
        {
            "buffer" : 0,
            "byteLength" : 3888,
            "byteOffset" : 60428
        },
        {
            "buffer" : 0,
            "byteLength" : 3888,
            "byteOffset" : 64316
        },
        {
            "buffer" : 0,
            "byteLength" : 2592,
            "byteOffset" : 68204
        },
        {
            "buffer" : 0,
            "byteLength" : 2772,
            "byteOffset" : 70796
        },
        {
            "buffer" : 0,
            "byteLength" : 4488,
            "byteOffset" : 73568
        },
        {
            "buffer" : 0,
            "byteLength" : 4488,
            "byteOffset" : 78056
        },
        {
            "buffer" : 0,
            "byteLength" : 2992,
            "byteOffset" : 82544
        },
        {
            "buffer" : 0,
            "byteLength" : 3768,
            "byteOffset" : 85536
        },
        {
            "buffer" : 0,
            "byteLength" : 696,
            "byteOffset" : 89304
        },
        {
            "buffer" : 0,
            "byteLength" : 696,
            "byteOffset" : 90000
        },
        {
            "buffer" : 0,
            "byteLength" : 464,
            "byteOffset" : 90696
        },
        {
            "buffer" : 0,
            "byteLength" : 612,
            "byteOffset" : 91160
        },
        {
            "buffer" : 0,
            "byteLength" : 2856,
            "byteOffset" : 91772
        },
        {
            "buffer" : 0,
            "byteLength" : 2856,
            "byteOffset" : 94628
        },
        {
            "buffer" : 0,
            "byteLength" : 1904,
            "byteOffset" : 97484
        },
        {
            "buffer" : 0,
            "byteLength" : 2328,
            "byteOffset" : 99388
        },
        {
            "buffer" : 0,
            "byteLength" : 288,
            "byteOffset" : 101716
        },
        {
            "buffer" : 0,
            "byteLength" : 288,
            "byteOffset" : 102004
        },
        {
            "buffer" : 0,
            "byteLength" : 192,
            "byteOffset" : 102292
        },
        {
            "buffer" : 0,
            "byteLength" : 252,
            "byteOffset" : 102484
        },
        {
            "buffer" : 0,
            "byteLength" : 100,
            "byteOffset" : 102736
        },
        {
            "buffer" : 0,
            "byteLength" : 400,
            "byteOffset" : 102836
        }
    ],
    "buffers" : [
        {
            "byteLength" : 103236,
            "uri" : "data:application/octet-stream;base64,"
        }
    ]
}
